:FULLY-SPECIFIED
:FORCE-ALL-JOINTS-BE-3DOF
:DEGREES
951
root 1.28341 15.3272 32.6993 5.73803 -3.93407 364.948
lfemur 7.36759 1.22073 3.64095
ltibia 1.45081 0 0
lfoot -28.9251 -18.2816 0
ltoes -28.8447 0 0
rfemur -31.5248 -12.7783 -7.85862
rtibia 49.3006 0 0
rfoot -17.6752 2.6431 0
rtoes -42.9303 0 0
lowerback -2.26006 -0.766833 -0.359799
upperback -1.21435 -0.996053 -6.93523
thorax -0.103377 -0.527969 -7.04085
lowerneck -6.48279 0.788737 4.45611
upperneck 1.3978 0.572959 4.03307
head 1.5501 0.398768 0.531411
lclavicle -1.34821e-15 5.23255e-15 0
lhumerus -58.1171 -43.454 111.951
lradius 55.7248 0 0
lwrist 24.2947 0 0
lhand 40.361 25.143 0
lfingers 7.12502 0 0
lthumb 62.6801 35.6588 0
rclavicle -1.34821e-15 5.23255e-15 0
rhumerus -6.50291 0.47321 -10.5015
rradius 51.4299 0 0
rwrist -12.7605 0 0
rhand -12.7518 -34.9987 0
rfingers 7.12502 0 0
rthumb 13.1565 -782.401 0
952
root 1.25919 15.3121 32.6947 5.77535 -4.07784 364.889
lfemur 7.5119 1.36566 3.77735
ltibia 1.31892 0 0
lfoot -28.9891 -17.7587 0
ltoes -29.2379 0 0
rfemur -31.754 -13.1077 -7.68293
rtibia 49.502 0 0
rfoot -18.1654 2.98586 0
rtoes -42.7937 0 0
lowerback -2.19716 -0.761356 -0.272687
upperback -1.20566 -0.993607 -6.8733
thorax -0.129709 -0.527217 -7.02331
lowerneck -6.44193 0.83491 4.5772
upperneck 1.30849 0.632353 3.99814
head 1.51358 0.42543 0.501245
lclavicle -1.78585e-15 3.74487e-15 0
lhumerus -58.1893 -43.5401 112.159
lradius 55.6533 0 0
lwrist 24.2393 0 0
lhand 40.2556 24.9483 0
lfingers 7.12502 0 0
lthumb 62.5938 35.5832 0
rclavicle -1.78585e-15 3.74487e-15 0
rhumerus -5.44535 -1.94965 -9.4459
rradius 49.3399 0 0
rwrist -12.6927 0 0
rhand -14.5014 -36.1555 0
rfingers 7.12502 0 0
rthumb 11.4835 -783.786 0
953
root 1.23497 15.297 32.69 5.81267 -4.22161 364.83
lfemur 7.65622 1.51058 3.91374
ltibia 1.18703 0 0
lfoot -29.0531 -17.2359 0
ltoes -29.631 0 0
rfemur -31.9833 -13.4371 -7.50724
rtibia 49.7033 0 0
rfoot -18.6556 3.32863 0
rtoes -42.6571 0 0
lowerback -2.13426 -0.75588 -0.185575
upperback -1.19698 -0.991162 -6.81137
thorax -0.15604 -0.526465 -7.00578
lowerneck -6.40106 0.881083 4.69829
upperneck 1.21918 0.691746 3.96322
head 1.47705 0.452092 0.471079
lclavicle -2.2235e-15 2.2572e-15 0
lhumerus -58.2615 -43.6262 112.366
lradius 55.5818 0 0
lwrist 24.1839 0 0
lhand 40.1503 24.7537 0
lfingers 7.12502 0 0
lthumb 62.5075 35.5076 0
rclavicle -2.2235e-15 2.2572e-15 0
rhumerus -4.38778 -4.37252 -8.39031
rradius 47.2498 0 0
rwrist -12.6249 0 0
rhand -16.2511 -37.3123 0
rfingers 7.12502 0 0
rthumb 9.81046 -785.172 0
954
root 1.21075 15.2819 32.6854 5.84999 -4.36538 364.771
lfemur 7.80053 1.65551 4.05014
ltibia 1.05514 0 0
lfoot -29.1172 -16.713 0
ltoes -30.0242 0 0
rfemur -32.2125 -13.7665 -7.33155
rtibia 49.9047 0 0
rfoot -19.1458 3.67139 0
rtoes -42.5205 0 0
lowerback -2.07136 -0.750403 -0.0984625
upperback -1.18829 -0.988716 -6.74944
thorax -0.182372 -0.525713 -6.98824
lowerneck -6.3602 0.927256 4.81938
upperneck 1.12987 0.75114 3.92829
head 1.44053 0.478754 0.440913
lclavicle -2.66115e-15 7.69519e-16 0
lhumerus -58.3336 -43.7123 112.574
lradius 55.5103 0 0
lwrist 24.1285 0 0
lhand 40.045 24.559 0
lfingers 7.12502 0 0
lthumb 62.4212 35.432 0
rclavicle -2.66115e-15 7.69519e-16 0
rhumerus -3.33022 -6.79538 -7.33472
rradius 45.1597 0 0
rwrist -12.5571 0 0
rhand -18.0008 -38.4691 0
rfingers 7.12502 0 0
rthumb 8.13742 -786.557 0
955
root 1.18653 15.2668 32.6807 5.8873 -4.50915 364.712
lfemur 7.94485 1.80043 4.18653
ltibia 0.923246 0 0
lfoot -29.1812 -16.1901 0
ltoes -30.4173 0 0
rfemur -32.4417 -14.0959 -7.15586
rtibia 50.106 0 0
rfoot -19.6359 4.01415 0
rtoes -42.3839 0 0
lowerback -2.00846 -0.744926 -0.0113505
upperback -1.17961 -0.98627 -6.68752
thorax -0.208703 -0.524961 -6.97071
lowerneck -6.31934 0.973429 4.94047
upperneck 1.04055 0.810534 3.89337
head 1.404 0.505416 0.410748
lclavicle -3.09879e-15 -7.18158e-16 0
lhumerus -58.4058 -43.7983 112.781
lradius 55.4388 0 0
lwrist 24.0731 0 0
lhand 39.9396 24.3644 0
lfingers 7.12502 0 0
lthumb 62.3349 35.3564 0
rclavicle -3.09879e-15 -7.18158e-16 0
rhumerus -2.27265 -9.21825 -6.27913
rradius 43.0697 0 0
rwrist -12.4893 0 0
rhand -19.7504 -39.626 0
rfingers 7.12502 0 0
rthumb 6.46439 -787.942 0
956
root 1.16231 15.2516 32.676 5.92462 -4.65292 364.653
lfemur 8.08917 1.94536 4.32292
ltibia 0.791354 0 0
lfoot -29.2452 -15.6672 0
ltoes -30.8105 0 0
rfemur -32.6709 -14.4253 -6.98017
rtibia 50.3074 0 0
rfoot -20.1261 4.35692 0
rtoes -42.2473 0 0
lowerback -1.94556 -0.73945 0.0757616
upperback -1.17092 -0.983824 -6.62559
thorax -0.235035 -0.524209 -6.95317
lowerneck -6.27848 1.0196 5.06156
upperneck 0.951243 0.869928 3.85844
head 1.36747 0.532077 0.380582
lclavicle -3.53644e-15 -2.20584e-15 0
lhumerus -58.478 -43.8844 112.989
lradius 55.3673 0 0
lwrist 24.0177 0 0
lhand 39.8343 24.1697 0
lfingers 7.12502 0 0
lthumb 62.2486 35.2807 0
rclavicle -3.53644e-15 -2.20584e-15 0
rhumerus -1.21509 -11.6411 -5.22354
rradius 40.9796 0 0
rwrist -12.4215 0 0
rhand -21.5001 -40.7828 0
rfingers 7.12502 0 0
rthumb 4.79135 -789.327 0
957
root 1.13809 15.2365 32.6714 5.96194 -4.79669 364.594
lfemur 8.23348 2.09028 4.45932
ltibia 0.659461 0 0
lfoot -29.3093 -15.1443 0
ltoes -31.2036 0 0
rfemur -32.9001 -14.7547 -6.80449
rtibia 50.5088 0 0
rfoot -20.6163 4.69968 0
rtoes -42.1107 0 0
lowerback -1.88265 -0.733973 0.162874
upperback -1.16224 -0.981378 -6.56366
thorax -0.261366 -0.523457 -6.93564
lowerneck -6.23762 1.06577 5.18266
upperneck 0.861932 0.929321 3.82352
head 1.33095 0.558739 0.350416
lclavicle -3.97409e-15 -3.69351e-15 0
lhumerus -58.5501 -43.9705 113.197
lradius 55.2959 0 0
lwrist 23.9622 0 0
lhand 39.729 23.975 0
lfingers 7.12502 0 0
lthumb 62.1623 35.2051 0
rclavicle -3.97409e-15 -3.69351e-15 0
rhumerus -0.157523 -14.064 -4.16795
rradius 38.8895 0 0
rwrist -12.3538 0 0
rhand -23.2498 -41.9396 0
rfingers 7.12502 0 0
rthumb 3.11831 -790.713 0
958
root 1.11387 15.2214 32.6667 5.99926 -4.94046 364.535
lfemur 8.3778 2.23521 4.59571
ltibia 0.527569 0 0
lfoot -29.3733 -14.6214 0
ltoes -31.5968 0 0
rfemur -33.1293 -15.0841 -6.6288
rtibia 50.7101 0 0
rfoot -21.1065 5.04244 0
rtoes -41.9741 0 0
lowerback -1.81975 -0.728496 0.249986
upperback -1.15355 -0.978932 -6.50173
thorax -0.287698 -0.522705 -6.9181
lowerneck -6.19676 1.11195 5.30375
upperneck 0.772621 0.988715 3.78859
head 1.29442 0.585401 0.32025
lclavicle -4.41173e-15 -5.18119e-15 0
lhumerus -58.6223 -44.0566 113.404
lradius 55.2244 0 0
lwrist 23.9068 0 0
lhand 39.6236 23.7804 0
lfingers 7.12502 0 0
lthumb 62.076 35.1295 0
rclavicle -4.41173e-15 -5.18119e-15 0
rhumerus 0.900042 -16.4868 -3.11236
rradius 36.7995 0 0
rwrist -12.286 0 0
rhand -24.9994 -43.0964 0
rfingers 7.12502 0 0
rthumb 1.44527 -792.098 0
